<?xml version="1.0" standalone="no"?>
<!DOCTYPE svg PUBLIC "-//W3C//DTD SVG 1.1//EN" "http://www.w3.org/Graphics/SVG/1.1/DTD/svg11.dtd" >
<svg xmlns="http://www.w3.org/2000/svg">
<metadata></metadata>
<defs>
<font id="ramsregular" horiz-adv-x="1126" >
<font-face units-per-em="2048" ascent="1536" descent="-512" />
<missing-glyph horiz-adv-x="491" />
<glyph unicode="&#xfb01;" horiz-adv-x="1118" d="M61 821v158h142v168q0 43 10.5 87t37 92t67 84.5t106.5 60.5t149 24v-160q-54 0 -93 -16t-58.5 -43.5t-28 -57.5t-8.5 -65v-174h565v-979h-188v821h-377v-821h-182v821h-142zM758 1169v197h196v-197h-196z" />
<glyph unicode="&#xfb02;" horiz-adv-x="1093" d="M61 821v158h142v147q0 43 10.5 87t37 92t67 85t106.5 61t149 24h357v-1475h-182v1315h-175q-54 0 -93 -16t-58.5 -43.5t-28 -57.5t-8.5 -65v-154h188v-158h-188v-821h-182v821h-142z" />
<glyph horiz-adv-x="0" />
<glyph horiz-adv-x="682" />
<glyph unicode=" "  horiz-adv-x="491" />
<glyph unicode="&#x09;" horiz-adv-x="491" />
<glyph unicode="&#xa0;" horiz-adv-x="491" />
<glyph unicode="!" horiz-adv-x="577" d="M184 0v207h209v-207h-209zM190 614v861h195v-861l-20 -237h-154z" />
<glyph unicode="&#x22;" horiz-adv-x="737" d="M123 936v539h190l-61 -539h-129zM465 936v539h190l-61 -539h-129z" />
<glyph unicode="#" d="M74 377v180h239l35 242h-217v180h244l59 418h135l-59 -418h184l60 418h135l-60 -418h222v-180h-248l-35 -242h225v-180h-250l-53 -377h-135l53 377h-184l-53 -377h-135l53 377h-215zM449 557h184l35 242h-185z" />
<glyph unicode="$" d="M106 102v187q6 -5 18 -12.5t50.5 -27.5t79.5 -36t102.5 -30t122.5 -17v496q-63 20 -110 39.5t-98.5 50.5t-84 67.5t-54 90t-21.5 118.5q0 102 50.5 180.5t132 122.5t185.5 58v194h131v-188q171 -5 288 -58l11 -6v-170q-14 6 -40 16t-104.5 29t-154.5 23v-426 q50 -15 85.5 -27.5t81.5 -33t77.5 -40.5t65.5 -50.5t54 -64.5t33 -79t13 -98q0 -147 -109 -263t-301 -141v-223h-131v217q-95 4 -188 29.5t-139 48.5zM291 1040q0 -69 49 -114.5t139 -77.5v377q-83 -11 -135.5 -59t-52.5 -126zM610 174q95 15 161.5 72t66.5 153 q0 81 -60 131.5t-168 85.5v-442z" />
<glyph unicode="%" horiz-adv-x="1548" d="M102 1094q0 134 94.5 228.5t227.5 94.5q134 0 229 -94t95 -229q0 -134 -94.5 -228t-229.5 -94t-228.5 94t-93.5 228zM248 0l893 1397h159l-892 -1397h-160zM252 1094q0 -71 51 -122.5t121 -51.5q72 0 123 51t51 123q0 74 -50.5 125t-123.5 51q-71 0 -121.5 -51.5 t-50.5 -124.5zM801 301q0 135 94.5 229.5t226.5 94.5q134 0 229 -94.5t95 -229.5q0 -134 -94.5 -227.5t-229.5 -93.5t-228 93.5t-93 227.5zM950 301q0 -71 51 -122.5t121 -51.5q72 0 123 51t51 123q0 74 -50.5 125t-123.5 51q-71 0 -121.5 -51.5t-50.5 -124.5z" />
<glyph unicode="&#x26;" horiz-adv-x="1222" d="M102 426q0 76 20 144.5t48.5 112t57.5 76t49 46.5l20 14q-4 5 -11 13.5t-25 37t-32 58t-25 73t-11 86.5q0 138 108.5 234t276.5 96q75 0 137 -11.5t87 -22.5l25 -11v-168q-11 5 -30.5 12t-80.5 19t-122 12q-94 0 -157.5 -47t-63.5 -121q0 -27 11.5 -60.5t25.5 -60.5 t39.5 -63t41 -55t42 -51t30.5 -37q175 -212 342 -400q45 90 45 172h178q0 -58 -27.5 -140.5t-80.5 -160.5l141 -157l-117 -115l-135 149q-140 -120 -342 -120q-105 0 -194.5 39t-147.5 102t-90.5 142.5t-32.5 162.5zM276 446q0 -78 33 -145.5t102.5 -111.5t161.5 -44 q135 0 230 74q-273 302 -408 475q-5 -3 -13 -10t-28.5 -30t-36 -49.5t-28.5 -69.5t-13 -89z" />
<glyph unicode="'" horiz-adv-x="395" d="M123 936v539h190l-61 -539h-129z" />
<glyph unicode="(" horiz-adv-x="618" d="M123 496q0 253 80.5 485.5t269.5 482.5l125 -75q-159 -250 -221 -465.5t-62 -427.5t62 -424.5t221 -470.5l-125 -78q-189 254 -269.5 490.5t-80.5 482.5z" />
<glyph unicode=")" horiz-adv-x="618" d="M20 -399q159 258 221 470.5t62 424.5t-62 427.5t-221 465.5l125 75q190 -250 270.5 -483t80.5 -485q0 -246 -81 -482.5t-270 -490.5z" />
<glyph unicode="*" horiz-adv-x="1036" d="M82 1153q0 38 25.5 64t62.5 26q19 0 35 -8l268 -139l-43 282q-2 12 -2 37q0 33 27 55.5t63 22.5t63 -23.5t27 -56.5q0 -23 -2 -35l-43 -282l268 139q16 8 37 8q39 0 62.5 -27t23.5 -65q0 -33 -21 -58t-48 -30l-295 -55l211 -205q22 -22 22 -62q0 -36 -27.5 -62t-66.5 -26 q-52 0 -74 43l-137 258l-139 -262q-20 -39 -76 -39q-35 0 -62.5 27.5t-27.5 62.5q0 37 25 62l208 203l-294 55q-31 6 -50.5 31t-19.5 59z" />
<glyph unicode="+" d="M123 586v162h358v358h162v-358h361v-162h-361v-359h-162v359h-358z" />
<glyph unicode="," horiz-adv-x="526" d="M143 -203l99 185v18h-68v207h209v-225l-158 -230z" />
<glyph unicode="-" horiz-adv-x="741" d="M123 473v160h495v-160h-495z" />
<glyph unicode="." horiz-adv-x="495" d="M143 0v207h209v-207h-209z" />
<glyph unicode="/" horiz-adv-x="620" d="M20 -20l426 1437h154l-426 -1437h-154z" />
<glyph unicode="0" d="M92 700q0 320 133 519.5t336 199.5q134 0 241 -89t168.5 -253.5t61.5 -376.5q0 -322 -133 -521t-338 -199q-133 0 -239.5 88.5t-168 253.5t-61.5 378zM272 700q0 -255 80 -402.5t209 -147.5t210 148t81 402q0 253 -81 401t-210 148q-128 0 -208.5 -147.5t-80.5 -401.5z " />
<glyph unicode="1" d="M174 0v164h328v1050l-297 -149v178l297 154h182v-1233h330v-164h-840z" />
<glyph unicode="2" d="M125 0q189 235 281 354q64 82 92.5 118.5t77 101.5t69 99t50 85.5t41 88t21 80.5t9.5 87q0 103 -70 169t-180 66q-48 0 -99 -11t-90 -26.5t-71 -31t-49 -26.5l-17 -11v182q6 4 17 10t47 22.5t73.5 29t93 22.5t109.5 10q188 0 302 -108.5t114 -292.5q0 -170 -106.5 -352 t-370.5 -496h537v-170h-881z" />
<glyph unicode="3" d="M160 66v186q6 -4 17.5 -11t48 -24.5t74 -31t92.5 -24.5t108 -11q116 0 197 67t81 174q0 113 -80 182.5t-231 69.5v164q141 0 212 64t71 173q0 86 -64.5 145.5t-157.5 59.5q-82 0 -162 -20t-120 -40l-39 -20v168q6 3 17.5 8.5t48 20t74 25t92 19.5t106.5 9 q170 0 277.5 -100.5t107.5 -255.5q0 -52 -11 -98.5t-29 -78.5t-39 -58.5t-42.5 -43t-39.5 -27.5t-29 -15l-11 -5q10 -3 25.5 -10t56.5 -34.5t72 -63t56.5 -99t25.5 -139.5q0 -178 -129 -294.5t-330 -116.5q-94 0 -180.5 21.5t-125.5 42.5z" />
<glyph unicode="4" d="M70 348l520 1049h198l-434 -885h367v238h180v-238h154v-164h-154v-348h-180v348h-651z" />
<glyph unicode="5" d="M156 70v182q6 -4 17.5 -11t47.5 -24.5t72.5 -31t88 -24.5t99.5 -11q138 0 222.5 79t84.5 193q0 122 -94.5 204.5t-257.5 82.5q-46 0 -102 -4.5t-88 -9.5l-33 -5l80 705h606v-168h-448l-41 -359q68 2 82 2q219 0 349 -126.5t130 -317.5q0 -192 -137 -319t-338 -127 q-59 0 -116 9.5t-95.5 22.5t-69 26t-45.5 22z" />
<glyph unicode="6" d="M133 477q0 265 144.5 512t412.5 430l109 -133q-153 -92 -274.5 -242.5t-170.5 -312.5q12 8 33.5 20t87 32t129.5 20q167 0 278 -116t111 -290q0 -173 -122.5 -295t-305.5 -122q-196 0 -314 134.5t-118 362.5zM311 459q0 -145 76 -229.5t184 -84.5q106 0 174 71t68 183 q0 100 -72 170t-178 70q-43 0 -83.5 -9t-68 -22t-48.5 -26t-31 -22l-10 -9q-11 -47 -11 -92z" />
<glyph unicode="7" d="M139 1231v166h895l-626 -1397h-201l559 1231h-627z" />
<glyph unicode="8" d="M111 373q0 69 22.5 130t54.5 98.5t64.5 65t55.5 39.5l22 11q-8 4 -20 11.5t-44 35t-56.5 60t-44.5 86.5t-20 114q0 169 120 281t298 112q176 0 296 -112t120 -281q0 -59 -18.5 -112.5t-45.5 -87.5t-54 -59.5t-45 -36.5l-19 -11q9 -4 23.5 -12t52 -38t66 -66t52 -98 t23.5 -132q0 -167 -128.5 -279t-320.5 -112q-195 0 -324.5 112.5t-129.5 280.5zM291 387q0 -107 75 -175.5t197 -68.5q120 0 194 68.5t74 175.5q0 103 -74.5 171.5t-191.5 68.5q-121 0 -197.5 -68.5t-76.5 -171.5zM324 1022q0 -94 68.5 -159.5t170.5 -65.5q101 0 169.5 66.5 t68.5 160.5q0 98 -67.5 163.5t-170.5 65.5q-104 0 -171.5 -65t-67.5 -166z" />
<glyph unicode="9" d="M133 1001q0 173 122.5 295.5t305.5 122.5q196 0 314 -134.5t118 -362.5q0 -265 -144.5 -512t-412.5 -430l-108 133q153 92 274 242.5t170 312.5q-12 -8 -33.5 -20t-87 -32t-129.5 -20q-167 0 -278 116t-111 289zM313 999q0 -100 71.5 -169.5t178.5 -69.5q68 0 128.5 22 t86.5 44l27 22q10 47 10 92q0 145 -76 229t-184 84q-106 0 -174 -71t-68 -183z" />
<glyph unicode=":" horiz-adv-x="495" d="M143 0v207h209v-207h-209zM143 772v207h209v-207h-209z" />
<glyph unicode=";" horiz-adv-x="495" d="M113 -203l98 185v18h-68v207h209v-225l-157 -230zM143 772v207h209v-207h-209z" />
<glyph unicode="&#x3c;" d="M123 594v143l881 404v-176l-674 -299l674 -299v-177z" />
<glyph unicode="=" d="M123 385v164h881v-164h-881zM123 795v163h881v-163h-881z" />
<glyph unicode="&#x3e;" d="M123 190v177l674 299l-674 299v176l881 -404v-143z" />
<glyph unicode="?" horiz-adv-x="815" d="M61 1243v176q16 8 44 20t105 32t142 20q193 0 297.5 -97.5t104.5 -256.5q0 -82 -30 -156t-74.5 -128.5t-90 -101.5t-83 -95t-46.5 -89q-5 -24 -8.5 -71.5t-4.5 -83.5l-1 -35h-178q-5 126 -5 153q0 71 34 137t82 118t96 102t82 109.5t34 121.5q0 39 -10 72.5t-33 63.5 t-68.5 47.5t-109.5 17.5q-60 0 -130 -19t-110 -38zM221 0v207h209v-207h-209z" />
<glyph unicode="@" horiz-adv-x="2025" d="M123 498q0 187 74 357.5t198.5 293.5t296 195.5t359.5 72.5q111 0 219 -27t201.5 -76.5t173.5 -122t137 -159.5t89 -193.5t32 -220.5q0 -109 -41 -213t-114.5 -187.5t-183.5 -138t-239 -61.5h-166l6 103q-4 -5 -11 -13t-33 -29t-55.5 -37t-78 -29t-100.5 -13 q-160 0 -266.5 115.5t-106.5 290.5q0 138 65.5 264.5t186.5 208.5t266 82q56 0 105.5 -14t80 -33.5t53.5 -39t33 -33.5l9 -14l26 113h170l-168 -770q177 19 283.5 140.5t106.5 299.5q0 182 -90 329.5t-246 229.5t-346 82q-155 0 -295.5 -59.5t-242.5 -160t-162 -240 t-60 -293.5q0 -211 100 -385.5t271.5 -273.5t375.5 -99q96 0 188 22t155 53t112.5 62.5t73.5 53.5l24 22v-195q-9 -7 -25.5 -19.5t-72 -43.5t-116 -54.5t-155 -43t-190.5 -19.5q-150 0 -288.5 45.5t-250 129.5t-194.5 197t-128.5 254t-45.5 294zM698 416q0 -112 61.5 -182 t158.5 -70q73 0 135.5 37.5t102.5 97t62.5 132t22.5 144.5q0 107 -55.5 162.5t-155.5 55.5q-88 0 -165.5 -56t-122 -143t-44.5 -178z" />
<glyph unicode="A" horiz-adv-x="1259" d="M31 0l600 1456l598 -1456h-197l-112 299h-578l-117 -299h-194zM403 461h455l-227 588z" />
<glyph unicode="B" horiz-adv-x="1251" d="M174 0v1397h479q223 0 342 -98.5t119 -260.5q0 -59 -20 -112t-49 -86.5t-58 -58.5t-49 -35l-20 -11q5 -2 14 -5.5t34 -17.5t48 -31t51 -47t48 -64.5t34 -84.5t14 -106q0 -173 -119.5 -276t-310.5 -103h-557zM356 164h324q299 0 299 227q0 110 -77 173t-228 63h-318v-463z M356 788h295q124 0 202.5 57.5t78.5 172.5q0 219 -270 219h-306v-449z" />
<glyph unicode="C" horiz-adv-x="1216" d="M92 700q0 197 95 362t257 260t353 95q84 0 164.5 -13.5t118.5 -27.5l38 -14v-184l-16 8t-43 18t-68 23t-86 18t-100 8q-107 0 -205 -43t-170 -116t-115 -176t-43 -216q0 -122 44 -228t117.5 -177t168.5 -111.5t197 -40.5q91 0 178 26.5t129 52.5l41 26v-193 q-16 -9 -46 -21.5t-123 -34t-187 -21.5q-145 0 -274.5 56t-222.5 151.5t-147.5 229t-54.5 283.5z" />
<glyph unicode="D" horiz-adv-x="1355" d="M174 0v1397h352q173 0 313 -52t232.5 -144.5t142.5 -221t50 -281.5q0 -151 -50 -279t-142.5 -221t-233 -145.5t-312.5 -52.5h-352zM356 166h179q259 0 402.5 147t143.5 385q0 241 -143 387t-403 146h-179v-1065z" />
<glyph unicode="E" horiz-adv-x="1138" d="M174 0v1397h887v-164h-707v-442h596v-166h-596v-461h723v-164h-903z" />
<glyph unicode="F" horiz-adv-x="1030" d="M174 0v1397h805v-164h-625v-442h561v-166h-559v-625h-182z" />
<glyph unicode="G" horiz-adv-x="1458" d="M92 700q0 150 56.5 283t155 228t238 150.5t298.5 55.5q109 0 208 -21t143 -42l44 -21v-178q-7 4 -20.5 10.5t-56.5 23.5t-87 30t-107.5 23.5t-123.5 10.5q-157 0 -286.5 -71t-204.5 -198t-75 -284q0 -125 46 -231t121.5 -175.5t171 -108t196.5 -38.5q64 0 123.5 11 t99 27.5t69.5 32.5t44 27l14 11v270h-434v166h610v-508q-8 -8 -23 -21.5t-67 -48.5t-109.5 -61.5t-149 -48.5t-187.5 -22q-138 0 -266 52.5t-226 144.5t-156.5 228t-58.5 293z" />
<glyph unicode="H" horiz-adv-x="1433" d="M174 0v1397h178v-606h729v606h179v-1397h-179v625h-729v-625h-178z" />
<glyph unicode="I" horiz-adv-x="530" d="M174 0v1397h182v-1397h-182z" />
<glyph unicode="J" horiz-adv-x="577" d="M61 0v160h25q66 0 108 45t42 131v1061h178v-1078q0 -141 -80.5 -230t-218.5 -89h-54z" />
<glyph unicode="K" horiz-adv-x="1196" d="M174 0v1397h180v-664l551 664h217l-532 -637l596 -760h-238l-473 625l-121 -142v-483h-180z" />
<glyph unicode="L" horiz-adv-x="1060" d="M174 0v1397h180v-1231h666v-166h-846z" />
<glyph unicode="M" horiz-adv-x="1685" d="M174 0v1436l668 -697l669 697v-1436h-178v1012l-491 -512l-490 512v-1012h-178z" />
<glyph unicode="N" horiz-adv-x="1433" d="M174 0v1434l907 -1016v979h179v-1434l-908 1014v-977h-178z" />
<glyph unicode="O" horiz-adv-x="1640" d="M92 700q0 146 57.5 279.5t155 229.5t232 153t282.5 57q119 0 230 -36.5t201 -103t157 -154.5t104 -198t37 -227q0 -146 -57.5 -279t-155.5 -229t-233 -153t-283 -57q-197 0 -364.5 96t-265 261.5t-97.5 360.5zM268 702q0 -150 74 -278.5t201 -203.5t276 -75 q112 0 214.5 44.5t176.5 119.5t118 178t44 215q0 150 -74 278.5t-201.5 204t-277.5 75.5q-149 0 -276 -75.5t-201 -204t-74 -278.5z" />
<glyph unicode="P" horiz-adv-x="1173" d="M174 0v1397h490q140 0 243.5 -59t154 -154t50.5 -211q0 -117 -51.5 -212.5t-155 -154.5t-241.5 -59h-312v-547h-178zM352 709h310q127 0 202.5 71.5t75.5 190.5t-75.5 191.5t-202.5 72.5h-310v-526z" />
<glyph unicode="Q" horiz-adv-x="1640" d="M92 700q0 146 57.5 279.5t155 229.5t232 153t282.5 57q119 0 230 -36.5t201 -103t157 -154.5t104 -198t37 -227q0 -218 -119.5 -395t-314.5 -262l377 -256v-217l-576 418q-59 -6 -96 -6q-197 0 -364.5 96t-265 261.5t-97.5 360.5zM268 702q0 -150 74 -278.5t201 -203.5 t276 -75q112 0 214.5 44.5t176.5 119.5t118 178t44 215q0 150 -74 278.5t-201.5 204t-277.5 75.5q-149 0 -276 -75.5t-201 -204t-74 -278.5z" />
<glyph unicode="R" horiz-adv-x="1234" d="M174 0v1397h479q192 0 314.5 -119.5t122.5 -294.5q0 -159 -116.5 -276t-281.5 -117l512 -590h-233l-602 721h268q125 0 203 76.5t78 183.5q0 106 -73.5 180t-187.5 74h-305v-1235h-178z" />
<glyph unicode="S" horiz-adv-x="1085" d="M102 82v186q8 -5 22 -13.5t58 -30t89 -38t108.5 -30t122.5 -13.5q56 0 108.5 12t101.5 38t79 74t30 112q0 63 -39.5 111.5t-102.5 81t-139.5 62t-152.5 64t-139 78t-102.5 113.5t-39.5 160q0 119 64 204t165 124.5t226 39.5q96 0 179.5 -14.5t119.5 -29.5l35 -15l-2 -168 q-17 7 -47 17t-117 27t-168 17q-75 0 -133.5 -17t-99.5 -61.5t-41 -111.5q0 -47 24.5 -85.5t66 -65.5t95.5 -51t113.5 -46.5t118.5 -47.5t113 -59.5t95.5 -76.5t66 -103.5t24.5 -136.5q0 -80 -32 -152.5t-93 -130t-158.5 -92t-218.5 -34.5q-65 0 -130 10.5t-111.5 25.5 t-83.5 30t-56 26z" />
<glyph unicode="T" horiz-adv-x="1038" d="M41 1231v166h956v-166h-389v-1231h-178v1231h-389z" />
<glyph unicode="U" horiz-adv-x="1384" d="M154 500v897h178v-893q0 -162 106 -261.5t254 -99.5t254.5 99.5t106.5 261.5v893h178v-897q0 -151 -75.5 -271t-198 -183.5t-265.5 -63.5q-106 0 -204 37.5t-172 104t-118 164.5t-44 212z" />
<glyph unicode="V" horiz-adv-x="1284" d="M41 1397h195l407 -1055l406 1055h194l-600 -1456z" />
<glyph unicode="W" horiz-adv-x="1959" d="M61 1397h191l317 -1012l412 1020l410 -1020l317 1012h190l-481 -1456l-436 1042l-438 -1042z" />
<glyph unicode="X" horiz-adv-x="1232" d="M41 0l467 727l-434 670h209l333 -537l332 537h209l-436 -670l471 -727h-207l-369 590l-370 -590h-205z" />
<glyph unicode="Y" horiz-adv-x="1181" d="M20 1397h191l381 -684l379 684h190l-481 -836v-561h-178v561z" />
<glyph unicode="Z" horiz-adv-x="1132" d="M61 0l734 1233h-666v164h963l-736 -1233h693v-164h-988z" />
<glyph unicode="[" horiz-adv-x="587" d="M174 -410v1807h373v-148h-189v-1515h189v-144h-373z" />
<glyph unicode="\" horiz-adv-x="620" d="M20 1417h154l426 -1437h-154z" />
<glyph unicode="]" horiz-adv-x="587" d="M41 -266h188v1515h-188v148h373v-1807h-373v144z" />
<glyph unicode="^" horiz-adv-x="968" d="M61 631l347 766h153l346 -766h-184l-240 575l-237 -575h-185z" />
<glyph unicode="_" horiz-adv-x="1001" d="M-10 -154h1022v-102h-1022v102z" />
<glyph unicode="`" horiz-adv-x="430" d="M0 1274l82 153l348 -208l-45 -101z" />
<glyph unicode="a" horiz-adv-x="1204" d="M82 489q0 141 64 258.5t173.5 184.5t237.5 67q60 0 114 -14t89 -34.5t61.5 -40.5t38.5 -34l12 -14l5 117h174v-979h-170l-9 123q-4 -6 -12 -15.5t-37.5 -34t-63 -43.5t-88 -34.5t-114.5 -15.5q-197 0 -336 148t-139 361zM252 489q0 -144 96 -248t238 -104q55 0 104 16.5 t80 40t54.5 47t33.5 39.5l10 17v385q-4 7 -11.5 17.5t-34 38t-56.5 48.5t-78 38.5t-100 17.5q-144 0 -240 -104t-96 -249z" />
<glyph unicode="b" horiz-adv-x="1187" d="M154 0v1475h182v-613q4 6 12 15t36.5 32.5t61 41.5t87 33t114.5 15q128 0 233.5 -67t165.5 -184t60 -259q0 -141 -59.5 -257.5t-165 -184t-234.5 -67.5q-60 0 -114 14.5t-89 35.5t-61.5 42.5t-38.5 35.5l-12 15l-8 -123h-170zM336 297q4 -7 11 -17.5t32.5 -38t55 -48.5 t79 -38.5t104.5 -17.5q141 0 228.5 103t87.5 249q0 147 -88 250t-230 103q-52 0 -99.5 -16.5t-79 -40t-55.5 -47t-35 -40.5l-11 -16v-385z" />
<glyph unicode="c" horiz-adv-x="903" d="M82 492q0 142 63.5 258t177 182.5t252.5 66.5q72 0 130.5 -10.5t80.5 -21.5l23 -11l-2 -178q-10 7 -28.5 17.5t-78 28.5t-122.5 18q-138 0 -233 -103t-95 -247q0 -145 92 -250t231 -105q67 0 129 16.5t90 32.5l29 17v-168q-3 -2 -8 -5.5t-26.5 -13t-48.5 -16.5 t-74.5 -12.5t-102.5 -5.5q-207 0 -343 147t-136 363z" />
<glyph unicode="d" horiz-adv-x="1187" d="M82 489q0 142 60 259t165.5 184t233.5 67q60 0 114 -14t88 -34.5t60 -40.5t37 -34l12 -14v613h182v-1475h-170l-8 123q-4 -6 -12 -15.5t-37.5 -34t-63 -43.5t-88 -34.5t-114.5 -15.5q-129 0 -234.5 67.5t-165 184t-59.5 257.5zM254 489q0 -146 87 -249t228 -103 q55 0 104 16.5t80.5 40t55 47t33.5 39.5l10 17v385q-4 7 -11.5 17.5t-34.5 38t-57 48.5t-78 38.5t-100 17.5q-142 0 -229.5 -103t-87.5 -250z" />
<glyph unicode="e" horiz-adv-x="1079" d="M82 492q0 141 65.5 257.5t179 183t251.5 66.5q87 0 161.5 -29t124.5 -76.5t85.5 -109t52 -125.5t16.5 -127q0 -36 -3 -65.5t-6 -40.5l-3 -12h-746q6 -112 101.5 -194.5t228.5 -82.5q80 0 161 23t123 46l41 23v-172q-5 -3 -14.5 -8t-42 -18t-68.5 -23t-92.5 -18t-115.5 -8 q-146 0 -261 68t-177 184t-62 258zM260 559h594q0 110 -80.5 199.5t-198.5 89.5q-124 0 -210 -87t-105 -202z" />
<glyph unicode="f" horiz-adv-x="593" d="M61 821v158h142v168q0 43 10.5 87t37 92t67 84.5t106.5 60.5t149 24v-160q-54 0 -93 -16t-58.5 -43.5t-28 -57.5t-8.5 -65v-174h188v-158h-188v-821h-182v821h-142z" />
<glyph unicode="g" horiz-adv-x="1187" d="M82 500q0 213 132.5 356t334.5 143q57 0 110 -14.5t87.5 -34.5t61 -40.5t38.5 -35.5l12 -14l4 119h172v-922q0 -224 -120.5 -355.5t-358.5 -131.5q-76 0 -144.5 12.5t-112 31t-76.5 36.5t-48 30l-14 13l80 137q4 -4 12.5 -11.5t37 -26.5t60.5 -33t84 -26t107 -12 q130 0 220.5 77t90.5 212v125q-4 -5 -12 -14t-36 -32t-60 -40.5t-85 -32t-110 -14.5q-201 0 -334 142t-133 356zM256 500q0 -147 86.5 -246.5t228.5 -99.5q52 0 99.5 15.5t79 37.5t56 44.5t35.5 38.5l11 15v385l-11 16.5t-32.5 37.5t-55.5 47.5t-79.5 37.5t-104.5 17 q-138 0 -225.5 -100.5t-87.5 -245.5z" />
<glyph unicode="h" horiz-adv-x="1165" d="M154 0v1475h182v-607l14 14t40.5 31t67 39t91.5 31t115 14q117 0 204.5 -54.5t130.5 -142.5t43 -194v-606h-182v590q0 122 -59 186t-164 64q-54 0 -105 -15.5t-85 -37.5t-60 -44t-39 -37l-12 -16v-690h-182z" />
<glyph unicode="i" horiz-adv-x="524" d="M164 1169v197h196v-197h-196zM168 0v979h188v-979h-188z" />
<glyph unicode="j" horiz-adv-x="520" d="M-20 -268q54 0 93 16t58.5 43.5t28 57.5t8.5 65v1065h182v-1059q0 -43 -10.5 -87t-37 -92t-67 -84.5t-106.5 -60.5t-149 -24v160zM160 1169v197h196v-197h-196z" />
<glyph unicode="k" horiz-adv-x="1034" d="M154 0v1475h182v-932l401 436h232l-400 -414l424 -565h-231l-318 444l-108 -106v-338h-182z" />
<glyph unicode="l" horiz-adv-x="499" d="M154 0v1475h182v-1475h-182z" />
<glyph unicode="m" horiz-adv-x="1730" d="M154 0v979h172l8 -105q5 5 15.5 13.5t42.5 29.5t65 37t81 29.5t93 13.5q55 0 103 -13.5t77.5 -32.5t51.5 -38.5t31 -32.5l9 -14q6 5 17.5 14t48.5 31.5t75 40t94.5 31.5t110.5 14q117 0 197 -52.5t115.5 -136.5t35.5 -192v-616h-182v590q0 126 -47.5 188t-148.5 62 q-62 0 -124.5 -30t-94.5 -60l-31 -29v-721h-183v610q0 114 -43.5 172t-142.5 58q-38 0 -79.5 -13.5t-72.5 -33t-57 -39.5t-39 -34l-14 -13v-707h-184z" />
<glyph unicode="n" horiz-adv-x="1175" d="M154 0v979h172l8 -107q5 5 15 13.5t43 30t69 38t92.5 30t114.5 13.5q175 0 274.5 -111.5t99.5 -275.5v-610h-182v586q0 122 -61 188t-162 66q-52 0 -101.5 -14.5t-83.5 -35t-61 -41t-40 -35.5l-13 -14v-700h-184z" />
<glyph unicode="o" horiz-adv-x="1185" d="M82 489q0 214 148.5 361t361.5 147q140 0 257.5 -67t186 -184t68.5 -257q0 -104 -40 -198.5t-108.5 -162.5t-163.5 -108t-200 -40q-140 0 -257.5 67.5t-185 184.5t-67.5 257zM250 489q0 -143 99 -248.5t243 -105.5q145 0 244.5 105t99.5 249t-99.5 248.5t-244.5 104.5 q-141 0 -241.5 -104.5t-100.5 -248.5z" />
<glyph unicode="p" horiz-adv-x="1187" d="M154 -410v1389h170l8 -123q4 6 12 15.5t37.5 34t63 43.5t88 34.5t114.5 15.5q129 0 234.5 -67.5t165 -184.5t59.5 -258q0 -215 -132 -362t-327 -147q-60 0 -114 14t-88 34t-60 40.5t-37 34.5l-12 14v-527h-182zM336 297q4 -7 11.5 -17.5t34 -38t56.5 -48.5t78 -38.5 t100 -17.5q142 0 230 102.5t88 249.5q0 146 -87.5 249.5t-228.5 103.5q-55 0 -104 -16.5t-80 -40t-54.5 -47t-33.5 -40.5l-10 -16v-385z" />
<glyph unicode="q" horiz-adv-x="1187" d="M84 489q0 141 59.5 258t165 184.5t234.5 67.5q60 0 114 -14.5t89 -35.5t61.5 -42.5t38.5 -36.5l12 -14l8 123h170v-1389h-182v527q-4 -6 -12 -15t-36.5 -32.5t-61 -41.5t-87 -33t-114.5 -15q-195 0 -327 147t-132 362zM256 489q0 -147 87.5 -249.5t229.5 -102.5 q52 0 99.5 16.5t79 40t56 47t35.5 39.5l11 17v385q-4 7 -11 17.5t-32.5 38t-55.5 48.5t-79.5 38.5t-104.5 17.5q-140 0 -227.5 -103.5t-87.5 -249.5z" />
<glyph unicode="r" horiz-adv-x="747" d="M154 0v979h165l15 -152q4 7 11 18.5t33.5 40.5t58.5 51.5t85 41t113 18.5l72 -4l-2 -162q-25 9 -76 9q-58 0 -107.5 -20t-82.5 -52t-56.5 -73t-34 -81t-10.5 -77v-537h-184z" />
<glyph unicode="s" horiz-adv-x="913" d="M102 63v179q6 -4 16 -11t44 -25.5t70 -32t89.5 -25t106.5 -11.5q49 0 95.5 11.5t84 43t37.5 78.5q0 33 -23 59.5t-61 44t-86.5 36t-99 34.5t-99 41t-86.5 54t-61 74.5t-23 101.5q0 133 105 208.5t260 75.5q84 0 155 -13.5t100 -26.5l28 -13l-2 -164q-14 7 -39.5 17.5 t-101.5 28.5t-148 18q-68 0 -120 -33.5t-52 -89.5q0 -34 30 -60.5t77.5 -45t105 -37.5t115 -43.5t105 -56t77.5 -83.5t30 -118q0 -58 -25.5 -111t-74 -95.5t-127 -67.5t-176.5 -25q-80 0 -161.5 21t-122.5 41z" />
<glyph unicode="t" horiz-adv-x="604" d="M51 821v158h142v205h182v-205h209v-158h-209v-821h-182v821h-142z" />
<glyph unicode="u" horiz-adv-x="1175" d="M133 381v598h182v-586q0 -254 224 -254q53 0 103.5 15t84.5 37t60 44t39 37l12 15v692h184v-979h-172l-6 117q-5 -5 -15 -14.5t-43.5 -32.5t-70 -41t-93 -32.5t-114.5 -14.5q-184 0 -279.5 108.5t-95.5 290.5z" />
<glyph unicode="v" horiz-adv-x="980" d="M20 979h183l286 -653l289 653h183l-472 -1045z" />
<glyph unicode="w" horiz-adv-x="1626" d="M61 979h183l256 -666l313 680l315 -680l254 666h183l-422 -1045l-330 691l-330 -691z" />
<glyph unicode="x" horiz-adv-x="995" d="M41 0l354 502l-332 477h207l228 -340l227 340h209l-334 -477l354 -502h-209l-247 365l-248 -365h-209z" />
<glyph unicode="y" horiz-adv-x="1038" d="M20 979h187l319 -717l316 717h176l-615 -1389h-176l209 478z" />
<glyph unicode="z" horiz-adv-x="1007" d="M61 0l584 823h-514v156h815l-579 -823h534v-156h-840z" />
<glyph unicode="{" horiz-adv-x="587" d="M0 420v147q75 0 124.5 58.5t49.5 150.5v363q0 105 71 181.5t161 76.5h141v-148h-90q-101 0 -101 -151v-332q0 -59 -17.5 -109t-42.5 -78.5t-50 -49t-42 -27.5l-18 -8q7 -3 18.5 -8t40.5 -27.5t51.5 -50.5t41 -78.5t18.5 -110.5v-325q0 -156 101 -156h90v-148h-141 q-90 0 -161 76.5t-71 181.5v363q0 89 -49.5 149t-124.5 60z" />
<glyph unicode="|" horiz-adv-x="534" d="M184 -430v1925h166v-1925h-166z" />
<glyph unicode="}" horiz-adv-x="587" d="M41 -262h90q100 0 100 156v325q0 60 17.5 110t42.5 79t50 50t43 28l17 8q-7 2 -18.5 7.5t-40.5 27.5t-51.5 50t-41 78t-18.5 109v332q0 78 -24.5 114.5t-75.5 36.5h-90v148h141q90 0 161 -76.5t71 -181.5v-363q0 -92 49.5 -150.5t124.5 -58.5v-147q-75 0 -124.5 -60 t-49.5 -149v-363q0 -105 -71 -181.5t-161 -76.5h-141v148z" />
<glyph unicode="~" horiz-adv-x="1218" d="M123 420v153q138 117 268 117q50 0 115 -21.5t117 -48t114 -48t107 -21.5q100 0 252 123v-154q-141 -117 -262 -117q-61 0 -146.5 35t-169 70t-139.5 35q-62 0 -118.5 -30t-137.5 -93z" />
<glyph unicode="&#xa1;" horiz-adv-x="577" d="M184 772v207h209v-207h-209zM193 365l20 237h154l20 -237v-861h-194v861z" />
<glyph unicode="&#xa2;" d="M158 492q0 191 113 329.5t292 169.5v183h125v-177q22 -1 44 -4t40.5 -6.5t36 -8t31.5 -9t26 -8.5t20.5 -8t14.5 -7t9 -4l3 -2v-178q-10 8 -28.5 19.5t-77 33t-119.5 25.5v-703q63 5 123 25.5t89 38.5l28 18v-168q-9 -6 -26.5 -16t-80 -28.5t-133.5 -22.5v-203h-125v207 q-179 26 -292 167t-113 337zM326 492q0 -121 65.5 -218t171.5 -127v680q-106 -31 -171.5 -123.5t-65.5 -211.5z" />
<glyph unicode="&#xa3;" d="M123 0v174h72q4 2 11.5 6t25.5 20t32 34t25.5 49.5t11.5 66.5v275h-178v163h178v261q0 90 33 161t89.5 115.5t130 68t157.5 23.5q76 0 147.5 -14.5t105.5 -29.5l33 -15v-168q-15 7 -42 17t-101.5 27t-138.5 17q-48 0 -88 -10t-74 -31.5t-53 -59.5t-19 -89v-273h293v-163 h-293v-256q0 -39 -8.5 -73.5t-21 -55.5t-25 -37t-20.5 -23l-9 -6h650v-174h-924z" />
<glyph unicode="&#xa4;" d="M100 164l121 121q-63 94 -63 217q0 117 63 219l-117 117l123 123l119 -119q105 65 213 65q123 0 217 -65l121 119l125 -125l-119 -119q62 -97 62 -215q0 -115 -62 -215l123 -123l-125 -123l-123 123q-98 -66 -221 -66q-113 0 -213 62l-121 -119zM301 502 q0 -105 75 -178.5t183 -73.5t184 73.5t76 178.5t-76 178.5t-184 73.5q-107 0 -182.5 -73t-75.5 -179z" />
<glyph unicode="&#xa5;" d="M53 1397h191l319 -684l320 684h190l-344 -690h240v-160h-318v-127h318v-160h-318v-260h-178v260h-317v160h317v127h-317v160h239z" />
<glyph unicode="&#xa6;" horiz-adv-x="534" d="M184 322h166v-732h-166v732zM184 666v731h166v-731h-166z" />
<glyph unicode="&#xa7;" horiz-adv-x="1124" d="M123 543q0 48 19 95.5t46 80t54 58.5t46 39l19 13l-17 8.5t-38 27.5t-47.5 49t-37.5 75t-17 103q0 139 128.5 232t319.5 93q35 0 68.5 -2t61.5 -5.5t54 -8t46.5 -9t38 -9.5t30 -9.5t21 -8t12.5 -5.5l4 -2v-166q-17 7 -47 16.5t-116.5 26t-164.5 16.5q-127 0 -201.5 -44 t-74.5 -130q0 -50 37 -88t96 -64t130.5 -50t143.5 -53.5t131 -66.5t96 -96.5t37 -136.5q0 -48 -19 -95.5t-46.5 -81t-55 -60t-46.5 -39.5l-19 -13q7 -3 17.5 -8t38 -26.5t48.5 -48.5t38.5 -74.5t17.5 -102.5q0 -139 -129 -232t-320 -93q-35 0 -68.5 2t-61.5 5.5t-54 8 t-46.5 9.5t-38 9.5t-30 9t-21 8t-12.5 5.5l-4 2v166q17 -7 47 -16.5t116.5 -26t164.5 -16.5q127 0 202 44t75 130q0 50 -37 88t-96.5 64t-131 50t-143 53.5t-131 66.5t-96.5 96.5t-37 136.5zM293 575q0 -23 6 -44t21 -40t29.5 -34t43.5 -32.5t49 -29t60.5 -28.5t64.5 -27 t72 -29l61 -24q53 42 90 99.5t37 94.5q0 36 -14.5 67t-46.5 58t-64 48t-87.5 44t-95.5 38.5t-107 39.5q-4 1 -6 2t-5 2l-6 2q-45 -36 -73.5 -93.5t-28.5 -113.5z" />
<glyph unicode="&#xa8;" horiz-adv-x="522" d="M0 1180v176h176v-176h-176zM346 1180v176h176v-176h-176z" />
<glyph unicode="&#xa9;" horiz-adv-x="1642" d="M102 698q0 145 58 278.5t154.5 229.5t229.5 153.5t277 57.5t277 -57.5t229.5 -153.5t154.5 -229.5t58 -278.5q0 -193 -97 -358.5t-263 -262.5t-359 -97t-359 97t-263 262.5t-97 358.5zM246 698q0 -155 77.5 -287t210 -209t287.5 -77q154 0 287 77.5t211 209.5t78 286 q0 116 -46.5 222.5t-124 184t-184 123.5t-221.5 46q-155 0 -287.5 -77.5t-210 -210t-77.5 -288.5zM455 696q0 174 115 293t286 119q57 0 104 -10t66 -20l18 -11l-2 -145q-8 6 -23 15t-63.5 23.5t-99.5 14.5q-111 0 -183.5 -80.5t-72.5 -198.5q0 -119 70 -199.5t184 -80.5 q54 0 104 13t74 27l23 13v-139q-6 -5 -19 -13t-67 -21t-125 -13q-169 0 -279 119t-110 294z" />
<glyph unicode="&#xaa;" horiz-adv-x="735" d="M61 1096q0 130 82.5 219.5t202.5 89.5q50 0 92 -17t59 -34l17 -17l6 58h133v-598h-131l-4 67q-2 -3 -7 -8.5t-21 -19.5t-34 -24.5t-47.5 -19t-60.5 -8.5q-122 0 -204.5 90.5t-82.5 221.5zM115 526v136h538v-136h-538zM195 1096q0 -74 50 -130.5t122 -56.5q36 0 72 17 t53 34l18 17v237q-6 8 -17.5 19t-48.5 30t-75 19q-75 0 -124.5 -55.5t-49.5 -130.5z" />
<glyph unicode="&#xab;" horiz-adv-x="1026" d="M82 481l287 439h180l-287 -439l287 -438h-180zM477 481l285 439h182l-289 -439l289 -438h-182z" />
<glyph unicode="&#xac;" d="M123 690v160h881v-477h-160v317h-721z" />
<glyph unicode="&#xad;" horiz-adv-x="741" d="M123 473v160h495v-160h-495z" />
<glyph unicode="&#xae;" horiz-adv-x="1642" d="M102 698q0 145 57.5 278t154 229.5t229.5 154t278 57.5t278 -57.5t229.5 -154t154 -229.5t57.5 -278q0 -193 -97 -358.5t-263 -262.5t-359 -97t-359 97t-263 262.5t-97 358.5zM246 698q0 -117 45.5 -223.5t122.5 -183.5t183.5 -122.5t223.5 -45.5q115 0 221.5 46t184 123 t124 183.5t46.5 222.5q0 114 -46.5 220.5t-124.5 184.5t-184.5 124.5t-220.5 46.5q-116 0 -222.5 -46.5t-183.5 -124t-123 -184t-46 -221.5zM563 291v807h242q150 0 229.5 -63.5t79.5 -182.5q0 -169 -174 -227l193 -334h-166l-168 315h-101v-315h-135zM696 723h131 q62 0 107 35t45 90q0 127 -166 127h-117v-252z" />
<glyph unicode="&#xaf;" horiz-adv-x="440" d="M0 1194v143h440v-143h-440z" />
<glyph unicode="&#xb0;" horiz-adv-x="696" d="M61 1188q0 118 84.5 202.5t202.5 84.5t202.5 -84.5t84.5 -202.5q0 -119 -84 -202t-203 -83q-120 0 -203.5 82.5t-83.5 202.5zM190 1188q0 -66 46 -112t112 -46t112 46t46 112t-46 112t-112 46t-112 -46t-46 -112z" />
<glyph unicode="&#xb1;" d="M123 111v161h881v-161h-881zM123 690v160h360v319h160v-319h361v-160h-361v-317h-160v317h-360z" />
<glyph unicode="&#xb2;" horiz-adv-x="716" d="M82 930q113 151 170 227q59 78 84 113t58.5 88.5t46 92.5t12.5 77q0 47 -33 77.5t-84 30.5q-39 0 -91 -20.5t-84 -41.5l-32 -20v160q11 7 31.5 18t77 29.5t106.5 18.5q117 0 191.5 -68.5t74.5 -181.5q0 -93 -57.5 -192.5t-194.5 -264.5h277v-143h-553z" />
<glyph unicode="&#xb3;" horiz-adv-x="645" d="M61 979v162q13 -9 35 -22.5t79 -35.5t101 -22q56 0 94 31t38 82q0 54 -44.5 85t-130.5 31v140q79 0 118.5 30t39.5 80q0 38 -29.5 65t-70.5 27q-44 0 -95 -15t-80 -29l-30 -15v147q11 6 31 15.5t76 25t106 15.5q108 0 176 -64t68 -162q0 -44 -22.5 -89t-44.5 -68l-23 -23 q110 -74 110 -196q0 -109 -80 -181.5t-204 -72.5q-55 0 -109.5 15t-81.5 29z" />
<glyph unicode="&#xb4;" horiz-adv-x="430" d="M0 1219l348 208l82 -153l-385 -156z" />
<glyph unicode="&#xb5;" horiz-adv-x="1196" d="M154 -410v1389h182v-582q0 -126 66.5 -192t175.5 -66q54 0 102.5 16t79.5 38.5t54.5 45t33.5 38.5l10 16v686h184v-979h-172l-8 106q-5 -5 -14.5 -13.5t-39.5 -30t-61.5 -37.5t-77 -29.5t-89.5 -13.5q-52 0 -96 10.5t-70 25t-44.5 29t-25.5 25.5l-8 10v-492h-182z" />
<glyph unicode="&#xb6;" horiz-adv-x="1144" d="M61 1042q0 165 108.5 260t291.5 95h602v-168h-111v-1581h-170v1581h-137v-1581h-172v1048q-188 0 -300 98t-112 248z" />
<glyph unicode="&#xb7;" horiz-adv-x="495" d="M143 446v207h209v-207h-209z" />
<glyph unicode="&#xb8;" horiz-adv-x="333" d="M0 -238q41 -14 92 -14q32 0 56 16t24 43q0 26 -29 42t-57 19l-29 3l39 131h125l-16 -70q5 -1 14 -2.5t31 -10.5t39 -22t31 -38.5t14 -57.5q0 -80 -65 -124t-150 -44q-36 0 -65.5 4.5t-41.5 8.5l-12 4v112z" />
<glyph unicode="&#xb9;" horiz-adv-x="479" d="M41 1513v152l184 96h131v-831h-149v669z" />
<glyph unicode="&#xba;" horiz-adv-x="729" d="M61 1098q0 131 86 219t215 88q130 0 218 -89t88 -218q0 -131 -87.5 -220.5t-218.5 -89.5q-128 0 -214.5 89.5t-86.5 220.5zM121 526v136h491v-136h-491zM197 1098q0 -74 46.5 -128.5t118.5 -54.5q73 0 121.5 54.5t48.5 128.5q0 75 -48.5 127.5t-121.5 52.5 q-71 0 -118 -52.5t-47 -127.5z" />
<glyph unicode="&#xbb;" horiz-adv-x="1026" d="M82 43l289 438l-289 439h182l285 -439l-285 -438h-182zM477 43l287 438l-287 439h180l287 -439l-287 -438h-180z" />
<glyph unicode="&#xbc;" horiz-adv-x="1536" d="M102 1147v151l185 97h131v-832h-150v670zM258 -20l793 1435h153l-792 -1435h-154zM821 197l314 634h165l-243 -497h143v135h148v-135h86v-137h-86v-197h-148v197h-379z" />
<glyph unicode="&#xbd;" horiz-adv-x="1576" d="M102 1147v151l185 97h131v-832h-150v670zM258 -20l793 1435h153l-792 -1435h-154zM922 0l120 160q12 16 50 66t52.5 69.5t44.5 62t43 67t30 58t23.5 61.5t6.5 54q0 47 -32.5 78t-83.5 31q-39 0 -91 -20.5t-84 -40.5l-32 -21v159q11 7 31.5 18t77 29.5t106.5 18.5 q116 0 186 -68t70 -182q0 -95 -55.5 -197t-186.5 -260h277v-143h-553z" />
<glyph unicode="&#xbe;" horiz-adv-x="1677" d="M102 612v162q13 -9 35 -22.5t79 -35.5t101 -22q56 0 94 31t38 82q0 54 -44.5 85.5t-130.5 31.5v139q78 0 118 30.5t40 80.5q0 38 -29.5 65t-70.5 27q-44 0 -95 -15t-81 -30l-29 -15v148q11 6 31 15t76 24.5t106 15.5q108 0 176 -63.5t68 -161.5q0 -44 -22.5 -89 t-45.5 -68l-22 -23q110 -74 110 -197q0 -109 -80.5 -181.5t-204.5 -72.5q-55 0 -109 14.5t-81 29.5zM397 -20l793 1435h153l-792 -1435h-154zM963 197l313 634h166l-244 -497h143v135h148v-135h86v-137h-86v-197h-148v197h-378z" />
<glyph unicode="&#xbf;" horiz-adv-x="815" d="M61 -158q0 82 30 156t74.5 128.5t90 101.5t83 95t46.5 89q5 24 8.5 71.5t4.5 82.5l1 36h179q4 -126 4 -153q0 -71 -34 -137t-82 -118t-96 -102t-82 -109.5t-34 -121.5q0 -39 10 -72.5t33 -63.5t68.5 -47.5t109.5 -17.5q60 0 129.5 19t109.5 38l40 19v-176q-16 -8 -44 -20 t-105 -32t-142 -20q-193 0 -297.5 97.5t-104.5 256.5zM385 772v207h209v-207h-209z" />
<glyph unicode="&#xc0;" horiz-adv-x="1259" d="M31 0l600 1456l598 -1456h-197l-112 299h-578l-117 -299h-194zM403 461h455l-227 588zM414 1671l82 154l348 -209l-45 -100z" />
<glyph unicode="&#xc1;" horiz-adv-x="1259" d="M31 0l600 1456l598 -1456h-197l-112 299h-578l-117 -299h-194zM403 461h455l-227 588zM416 1616l348 209l82 -154l-385 -155z" />
<glyph unicode="&#xc2;" horiz-adv-x="1259" d="M31 0l600 1456l598 -1456h-197l-112 299h-578l-117 -299h-194zM352 1618l279 205l278 -205l-45 -96l-233 116l-234 -116zM403 461h455l-227 588z" />
<glyph unicode="&#xc3;" horiz-adv-x="1259" d="M31 0l600 1456l598 -1456h-197l-112 299h-578l-117 -299h-194zM365 1602q0 61 41.5 112t109.5 51q54 0 112 -32.5t93 -32.5q25 0 48.5 16.5t34.5 32.5l11 16l82 -39q0 -61 -42 -112t-110 -51q-54 0 -111.5 32.5t-92.5 32.5q-25 0 -49 -16.5t-35 -32.5l-11 -16zM403 461 h455l-227 588z" />
<glyph unicode="&#xc4;" horiz-adv-x="1259" d="M31 0l600 1456l598 -1456h-197l-112 299h-578l-117 -299h-194zM369 1577v176h176v-176h-176zM403 461h455l-227 588zM715 1577v176h176v-176h-176z" />
<glyph unicode="&#xc5;" horiz-adv-x="1259" d="M31 0l600 1456l598 -1456h-197l-112 299h-578l-117 -299h-194zM403 461h455l-227 588zM408 1681q0 92 65 154.5t158 62.5t158 -62.5t65 -154.5t-65 -154.5t-158 -62.5t-158 62.5t-65 154.5zM524 1681q0 -44 31.5 -75t75.5 -31t75 31t31 75t-31 75.5t-75 31.5t-75.5 -31.5 t-31.5 -75.5z" />
<glyph unicode="&#xc6;" horiz-adv-x="1951" d="M10 0l1002 1397h862v-164h-670v-442h576v-166h-576v-461h686v-164h-862v297h-598l-209 -297h-211zM543 457h485l2 692z" />
<glyph unicode="&#xc7;" horiz-adv-x="1216" d="M92 700q0 197 95 362t257 260t353 95q84 0 164.5 -13.5t118.5 -27.5l38 -14v-184l-16 8t-43 18t-68 23t-86 18t-100 8q-106 0 -204 -43t-170.5 -116t-115.5 -176t-43 -216q0 -122 44 -228t117.5 -177t168.5 -111.5t197 -40.5q91 0 178 26.5t129 52.5l41 26v-193 q-15 -8 -43 -20t-111.5 -32.5t-163.5 -22.5l-10 -50q5 -1 14 -2.5t31 -10.5t39 -22t31 -38.5t14 -57.5q0 -80 -65 -124t-150 -44q-36 0 -65.5 4.5t-41.5 8.5l-12 4v112q42 -14 93 -14q32 0 55.5 16t23.5 43q0 26 -28.5 42t-57.5 19l-28 3l33 115q-174 20 -313.5 117 t-219.5 253.5t-80 343.5z" />
<glyph unicode="&#xc8;" horiz-adv-x="1138" d="M174 0v1397h887v-164h-707v-442h596v-166h-596v-461h723v-164h-903zM410 1671l82 154l348 -209l-45 -100z" />
<glyph unicode="&#xc9;" horiz-adv-x="1138" d="M174 0v1397h887v-164h-707v-442h596v-166h-596v-461h723v-164h-903zM416 1616l348 209l82 -154l-385 -155z" />
<glyph unicode="&#xca;" horiz-adv-x="1138" d="M174 0v1397h887v-164h-707v-442h596v-166h-596v-461h723v-164h-903zM352 1618l279 205l278 -205l-45 -96l-233 116l-234 -116z" />
<glyph unicode="&#xcb;" horiz-adv-x="1138" d="M174 0v1397h887v-164h-707v-442h596v-166h-596v-461h723v-164h-903zM365 1577v176h176v-176h-176zM711 1577v176h176v-176h-176z" />
<glyph unicode="&#xcc;" horiz-adv-x="530" d="M51 1671l82 154l348 -209l-45 -100zM174 0v1397h182v-1397h-182z" />
<glyph unicode="&#xcd;" horiz-adv-x="530" d="M53 1616l348 209l82 -154l-385 -155zM174 0v1397h182v-1397h-182z" />
<glyph unicode="&#xce;" horiz-adv-x="530" d="M-10 1618l278 205l279 -205l-45 -96l-234 116l-233 -116zM174 0v1397h182v-1397h-182z" />
<glyph unicode="&#xcf;" horiz-adv-x="530" d="M6 1577v176h176v-176h-176zM174 0v1397h182v-1397h-182zM352 1577v176h176v-176h-176z" />
<glyph unicode="&#xd0;" horiz-adv-x="1378" d="M72 625v166h125v606h352q173 0 312.5 -52t232.5 -144.5t142.5 -221t49.5 -281.5q0 -151 -50 -279t-142.5 -221t-232.5 -145.5t-312 -52.5h-352v625h-125zM379 166h178q259 0 403 147t144 385q0 241 -143.5 387t-403.5 146h-178v-440h270v-166h-270v-459z" />
<glyph unicode="&#xd1;" horiz-adv-x="1433" d="M174 0v1434l907 -1016v979h179v-1434l-908 1014v-977h-178zM453 1602q0 61 41.5 112t109.5 51q54 0 112 -32.5t93 -32.5q25 0 48.5 16.5t34.5 32.5l11 16l82 -39q0 -61 -41.5 -112t-109.5 -51q-54 0 -112 32.5t-93 32.5q-25 0 -48.5 -16.5t-34.5 -32.5l-11 -16z" />
<glyph unicode="&#xd2;" horiz-adv-x="1640" d="M92 700q0 146 57.5 279.5t155 229.5t232 153t282.5 57q119 0 230 -36.5t201 -103t157 -154.5t104 -198t37 -227q0 -146 -57.5 -279t-155.5 -229t-233 -153t-283 -57q-197 0 -364.5 96t-265 261.5t-97.5 360.5zM268 702q0 -150 74 -278.5t201 -203.5t276 -75 q112 0 214.5 44.5t176.5 119.5t118 178t44 215q0 150 -74 278.5t-201.5 204t-277.5 75.5q-149 0 -276 -75.5t-201 -204t-74 -278.5zM604 1692l82 153l348 -209l-45 -100z" />
<glyph unicode="&#xd3;" horiz-adv-x="1640" d="M92 700q0 146 57.5 279.5t155 229.5t232 153t282.5 57q119 0 230 -36.5t201 -103t157 -154.5t104 -198t37 -227q0 -146 -57.5 -279t-155.5 -229t-233 -153t-283 -57q-197 0 -364.5 96t-265 261.5t-97.5 360.5zM268 702q0 -150 74 -278.5t201 -203.5t276 -75 q112 0 214.5 44.5t176.5 119.5t118 178t44 215q0 150 -74 278.5t-201.5 204t-277.5 75.5q-149 0 -276 -75.5t-201 -204t-74 -278.5zM604 1636l348 209l82 -153l-385 -156z" />
<glyph unicode="&#xd4;" horiz-adv-x="1640" d="M92 700q0 146 57.5 279.5t155 229.5t232 153t282.5 57q119 0 230 -36.5t201 -103t157 -154.5t104 -198t37 -227q0 -146 -57.5 -279t-155.5 -229t-233 -153t-283 -57q-197 0 -364.5 96t-265 261.5t-97.5 360.5zM268 702q0 -150 74 -278.5t201 -203.5t276 -75 q112 0 214.5 44.5t176.5 119.5t118 178t44 215q0 150 -74 278.5t-201.5 204t-277.5 75.5q-149 0 -276 -75.5t-201 -204t-74 -278.5zM541 1638l278 205l279 -205l-45 -96l-234 117l-233 -117z" />
<glyph unicode="&#xd5;" horiz-adv-x="1640" d="M92 700q0 146 57.5 279.5t155 229.5t232 153t282.5 57q119 0 230 -36.5t201 -103t157 -154.5t104 -198t37 -227q0 -146 -57.5 -279t-155.5 -229t-233 -153t-283 -57q-197 0 -364.5 96t-265 261.5t-97.5 360.5zM268 702q0 -150 74 -278.5t201 -203.5t276 -75 q112 0 214.5 44.5t176.5 119.5t118 178t44 215q0 150 -74 278.5t-201.5 204t-277.5 75.5q-149 0 -276 -75.5t-201 -204t-74 -278.5zM553 1622q0 61 42 112.5t110 51.5q54 0 111.5 -33t92.5 -33q25 0 49 16.5t35 33.5l11 16l81 -39q0 -61 -41.5 -112.5t-109.5 -51.5 q-54 0 -112 33t-93 33q-25 0 -48.5 -16.5t-34.5 -32.5l-11 -17z" />
<glyph unicode="&#xd6;" horiz-adv-x="1640" d="M92 700q0 146 57.5 279.5t155 229.5t232 153t282.5 57q119 0 230 -36.5t201 -103t157 -154.5t104 -198t37 -227q0 -146 -57.5 -279t-155.5 -229t-233 -153t-283 -57q-197 0 -364.5 96t-265 261.5t-97.5 360.5zM268 702q0 -150 74 -278.5t201 -203.5t276 -75 q112 0 214.5 44.5t176.5 119.5t118 178t44 215q0 150 -74 278.5t-201.5 204t-277.5 75.5q-149 0 -276 -75.5t-201 -204t-74 -278.5zM559 1597v177h176v-177h-176zM905 1597v177h176v-177h-176z" />
<glyph unicode="&#xd7;" horiz-adv-x="1009" d="M102 379l287 285l-287 286l115 113l287 -285l289 291l114 -115l-291 -290l287 -287l-112 -115l-287 287l-287 -285z" />
<glyph unicode="&#xd8;" horiz-adv-x="1640" d="M92 700q0 146 57.5 279.5t155 229.5t232 153t282.5 57q218 0 395 -116l115 145l98 -76l-114 -143q111 -100 173 -237.5t62 -291.5q0 -146 -57.5 -279t-155.5 -229t-233 -153t-283 -57q-220 0 -397 114l-115 -145l-96 76l115 145q-110 100 -172 237t-62 291zM268 702 q0 -114 43.5 -216t120.5 -177l678 860q-133 84 -291 84q-149 0 -276 -73.5t-201 -200.5t-74 -277zM530 233q128 -81 289 -81q150 0 277.5 73.5t201.5 200t74 276.5q0 113 -43.5 215t-120.5 177z" />
<glyph unicode="&#xd9;" horiz-adv-x="1384" d="M154 500v897h178v-893q0 -162 106 -261.5t254 -99.5t254.5 99.5t106.5 261.5v893h178v-897q0 -151 -75.5 -271t-198 -183.5t-265.5 -63.5q-106 0 -204 37.5t-172 104t-118 164.5t-44 212zM479 1671l82 154l348 -209l-45 -100z" />
<glyph unicode="&#xda;" horiz-adv-x="1384" d="M154 500v897h178v-893q0 -162 106 -261.5t254 -99.5t254.5 99.5t106.5 261.5v893h178v-897q0 -151 -75.5 -271t-198 -183.5t-265.5 -63.5q-106 0 -204 37.5t-172 104t-118 164.5t-44 212zM479 1616l348 209l82 -154l-385 -155z" />
<glyph unicode="&#xdb;" horiz-adv-x="1384" d="M154 500v897h178v-893q0 -162 106 -261.5t254 -99.5t254.5 99.5t106.5 261.5v893h178v-897q0 -151 -75.5 -271t-198 -183.5t-265.5 -63.5q-106 0 -204 37.5t-172 104t-118 164.5t-44 212zM416 1618l278 205l279 -205l-45 -96l-234 116l-233 -116z" />
<glyph unicode="&#xdc;" horiz-adv-x="1384" d="M154 500v897h178v-893q0 -162 106 -261.5t254 -99.5t254.5 99.5t106.5 261.5v893h178v-897q0 -151 -75.5 -271t-198 -183.5t-265.5 -63.5q-106 0 -204 37.5t-172 104t-118 164.5t-44 212zM432 1577v176h176v-176h-176zM778 1577v176h176v-176h-176z" />
<glyph unicode="&#xdd;" horiz-adv-x="1181" d="M20 1397h191l381 -684l379 684h190l-481 -836v-561h-178v561zM375 1616l348 209l82 -154l-385 -155z" />
<glyph unicode="&#xde;" horiz-adv-x="1173" d="M174 0v1397h180v-199h320q192 0 315 -124t123 -300q0 -177 -122.5 -301.5t-313.5 -124.5h-324v-348h-178zM352 510h326q113 0 187.5 78t74.5 184q0 107 -74.5 185.5t-187.5 78.5h-326v-526z" />
<glyph unicode="&#xdf;" horiz-adv-x="1120" d="M51 821v158h115v149q0 49 10.5 96.5t38 97.5t69 87.5t110.5 61.5t155 24q94 0 174.5 -40t131 -118t50.5 -178q0 -65 -23 -115.5t-55.5 -82t-64.5 -57.5t-55 -56t-23 -64q0 -37 29.5 -71.5t73 -60.5t95 -62t95 -74t73 -99t29.5 -134q0 -125 -102.5 -214t-298.5 -89 q-61 0 -116.5 9t-81.5 18l-25 9v162q96 -41 223 -41q83 0 151 38.5t68 107.5q0 37 -21.5 69t-56 57.5t-76 51t-83.5 56t-76.5 66t-56 86.5t-21.5 113q0 54 24 99.5t58 77.5t67.5 61.5t57.5 66t24 76.5q0 75 -55.5 127.5t-132.5 52.5q-104 0 -152.5 -59t-48.5 -143v-1141 h-182v821h-115z" />
<glyph unicode="&#xe0;" horiz-adv-x="1204" d="M82 489q0 141 64 258.5t173.5 184.5t237.5 67q60 0 114 -14t89 -34.5t61.5 -40.5t38.5 -34l12 -14l5 117h174v-979h-170l-9 123q-4 -6 -12 -15.5t-37.5 -34t-63 -43.5t-88 -34.5t-114.5 -15.5q-197 0 -336 148t-139 361zM252 489q0 -144 96 -248t238 -104q55 0 104 16.5 t80 40t54.5 47t33.5 39.5l10 17v385q-4 7 -11.5 17.5t-34 38t-56.5 48.5t-78 38.5t-100 17.5q-144 0 -240 -104t-96 -249zM387 1274l82 153l348 -208l-45 -101z" />
<glyph unicode="&#xe1;" horiz-adv-x="1204" d="M82 489q0 141 64 258.5t173.5 184.5t237.5 67q60 0 114 -14t89 -34.5t61.5 -40.5t38.5 -34l12 -14l5 117h174v-979h-170l-9 123q-4 -6 -12 -15.5t-37.5 -34t-63 -43.5t-88 -34.5t-114.5 -15.5q-197 0 -336 148t-139 361zM252 489q0 -144 96 -248t238 -104q55 0 104 16.5 t80 40t54.5 47t33.5 39.5l10 17v385q-4 7 -11.5 17.5t-34 38t-56.5 48.5t-78 38.5t-100 17.5q-144 0 -240 -104t-96 -249zM387 1219l348 208l82 -153l-385 -156z" />
<glyph unicode="&#xe2;" horiz-adv-x="1204" d="M82 489q0 141 64 258.5t173.5 184.5t237.5 67q60 0 114 -14t89 -34.5t61.5 -40.5t38.5 -34l12 -14l5 117h174v-979h-170l-9 123q-4 -6 -12 -15.5t-37.5 -34t-63 -43.5t-88 -34.5t-114.5 -15.5q-197 0 -336 148t-139 361zM252 489q0 -144 96 -248t238 -104q55 0 104 16.5 t80 40t54.5 47t33.5 39.5l10 17v385q-4 7 -11.5 17.5t-34 38t-56.5 48.5t-78 38.5t-100 17.5q-144 0 -240 -104t-96 -249zM324 1221l278 204l279 -204l-45 -97l-234 117l-233 -117z" />
<glyph unicode="&#xe3;" horiz-adv-x="1204" d="M82 489q0 141 64 258.5t173.5 184.5t237.5 67q60 0 114 -14t89 -34.5t61.5 -40.5t38.5 -34l12 -14l5 117h174v-979h-170l-9 123q-4 -6 -12 -15.5t-37.5 -34t-63 -43.5t-88 -34.5t-114.5 -15.5q-197 0 -336 148t-139 361zM252 489q0 -144 96 -248t238 -104q55 0 104 16.5 t80 40t54.5 47t33.5 39.5l10 17v385q-4 7 -11.5 17.5t-34 38t-56.5 48.5t-78 38.5t-100 17.5q-144 0 -240 -104t-96 -249zM336 1204q0 61 41.5 112.5t109.5 51.5q54 0 112 -32.5t93 -32.5q25 0 48.5 16.5t34.5 32.5l11 16l82 -39q0 -61 -41.5 -112.5t-109.5 -51.5 q-54 0 -112 33t-93 33q-25 0 -48.5 -16.5t-34.5 -32.5l-11 -17z" />
<glyph unicode="&#xe4;" horiz-adv-x="1204" d="M82 489q0 141 64 258.5t173.5 184.5t237.5 67q60 0 114 -14t89 -34.5t61.5 -40.5t38.5 -34l12 -14l5 117h174v-979h-170l-9 123q-4 -6 -12 -15.5t-37.5 -34t-63 -43.5t-88 -34.5t-114.5 -15.5q-197 0 -336 148t-139 361zM252 489q0 -144 96 -248t238 -104q55 0 104 16.5 t80 40t54.5 47t33.5 39.5l10 17v385q-4 7 -11.5 17.5t-34 38t-56.5 48.5t-78 38.5t-100 17.5q-144 0 -240 -104t-96 -249zM340 1180v176h176v-176h-176zM686 1180v176h176v-176h-176z" />
<glyph unicode="&#xe5;" horiz-adv-x="1204" d="M82 489q0 141 64 258.5t173.5 184.5t237.5 67q60 0 114 -14t89 -34.5t61.5 -40.5t38.5 -34l12 -14l5 117h174v-979h-170l-9 123q-4 -6 -12 -15.5t-37.5 -34t-63 -43.5t-88 -34.5t-114.5 -15.5q-197 0 -336 148t-139 361zM252 489q0 -144 96 -248t238 -104q55 0 104 16.5 t80 40t54.5 47t33.5 39.5l10 17v385q-4 7 -11.5 17.5t-34 38t-56.5 48.5t-78 38.5t-100 17.5q-144 0 -240 -104t-96 -249zM379 1284q0 92 65 154.5t158 62.5t158 -62.5t65 -154.5t-65 -154.5t-158 -62.5t-158 62.5t-65 154.5zM496 1284q0 -44 31 -75t75 -31t75.5 31t31.5 75 t-31.5 75.5t-75.5 31.5t-75 -31.5t-31 -75.5z" />
<glyph unicode="&#xe6;" horiz-adv-x="1867" d="M82 489q0 141 64.5 258t174 183.5t238.5 66.5q59 0 113 -14t89 -33.5t61 -39.5t38 -34l12 -14l9 117h157l6 -115q4 5 12.5 14.5t38.5 32.5t64.5 41t90.5 32.5t116 14.5q87 0 161.5 -29t124.5 -76.5t85.5 -109t52 -125.5t16.5 -127q0 -36 -3 -65.5t-6 -40.5l-3 -12h-745 q6 -119 100 -198t229 -79q80 0 161.5 23t122.5 46l42 23v-172q-5 -3 -14.5 -8t-42 -18t-68.5 -23t-93 -18t-116 -8q-66 0 -124 14.5t-93.5 35t-61.5 41.5t-37 35l-10 15l-4 -123h-159l-9 117q-4 -5 -12 -14.5t-37 -32.5t-62.5 -41t-88 -32.5t-113.5 -14.5 q-130 0 -239.5 66.5t-173.5 183.5t-64 257zM252 489q0 -143 97.5 -247.5t236.5 -104.5q55 0 104 16t80 39t54.5 46t33.5 39l10 16v391q-4 6 -11.5 17t-34 38t-56.5 48t-78 38t-100 17q-144 0 -240 -104t-96 -249zM1049 559h593q0 110 -80 199.5t-198 89.5q-127 0 -215 -84.5 t-100 -204.5z" />
<glyph unicode="&#xe7;" horiz-adv-x="903" d="M82 492q0 142 63.5 258t177 182.5t252.5 66.5q72 0 130.5 -10.5t80.5 -21.5l23 -11l-2 -178q-10 7 -28.5 17.5t-78 28.5t-122.5 18q-138 0 -233 -103t-95 -247q0 -145 92 -250t231 -105q67 0 129 16.5t90 32.5l29 17v-168q-6 -4 -18 -11t-60 -21t-108 -19l-8 -35 q4 -1 11.5 -4t25.5 -14.5t32 -26t25.5 -39.5t11.5 -55q0 -86 -64.5 -131.5t-150.5 -45.5q-36 0 -65.5 4.5t-41.5 8.5l-12 4v112q42 -14 93 -14q32 0 55.5 16t23.5 43q0 26 -28.5 42t-56.5 19l-29 3l35 117q-181 25 -295.5 166.5t-114.5 337.5z" />
<glyph unicode="&#xe8;" horiz-adv-x="1079" d="M82 492q0 141 65.5 257.5t179 183t251.5 66.5q87 0 161.5 -29t124.5 -76.5t85.5 -109t52 -125.5t16.5 -127q0 -36 -3 -65.5t-6 -40.5l-3 -12h-746q6 -112 101.5 -194.5t228.5 -82.5q80 0 161 23t123 46l41 23v-172q-5 -3 -14.5 -8t-42 -18t-68.5 -23t-92.5 -18t-115.5 -8 q-146 0 -261 68t-177 184t-62 258zM260 559h594q0 110 -80.5 199.5t-198.5 89.5q-124 0 -210 -87t-105 -202zM362 1274l82 153l349 -208l-45 -101z" />
<glyph unicode="&#xe9;" horiz-adv-x="1079" d="M82 492q0 141 65.5 257.5t179 183t251.5 66.5q87 0 161.5 -29t124.5 -76.5t85.5 -109t52 -125.5t16.5 -127q0 -36 -3 -65.5t-6 -40.5l-3 -12h-746q6 -112 101.5 -194.5t228.5 -82.5q80 0 161 23t123 46l41 23v-172q-5 -3 -14.5 -8t-42 -18t-68.5 -23t-92.5 -18t-115.5 -8 q-146 0 -261 68t-177 184t-62 258zM260 559h594q0 110 -80.5 199.5t-198.5 89.5q-124 0 -210 -87t-105 -202zM358 1219l349 208l81 -153l-385 -156z" />
<glyph unicode="&#xea;" horiz-adv-x="1079" d="M82 492q0 141 65.5 257.5t179 183t251.5 66.5q87 0 161.5 -29t124.5 -76.5t85.5 -109t52 -125.5t16.5 -127q0 -36 -3 -65.5t-6 -40.5l-3 -12h-746q6 -112 101.5 -194.5t228.5 -82.5q80 0 161 23t123 46l41 23v-172q-5 -3 -14.5 -8t-42 -18t-68.5 -23t-92.5 -18t-115.5 -8 q-146 0 -261 68t-177 184t-62 258zM260 559h594q0 110 -80.5 199.5t-198.5 89.5q-124 0 -210 -87t-105 -202zM293 1221l278 204l279 -204l-45 -97l-234 117l-233 -117z" />
<glyph unicode="&#xeb;" horiz-adv-x="1079" d="M82 492q0 141 65.5 257.5t179 183t251.5 66.5q87 0 161.5 -29t124.5 -76.5t85.5 -109t52 -125.5t16.5 -127q0 -36 -3 -65.5t-6 -40.5l-3 -12h-746q6 -112 101.5 -194.5t228.5 -82.5q80 0 161 23t123 46l41 23v-172q-5 -3 -14.5 -8t-42 -18t-68.5 -23t-92.5 -18t-115.5 -8 q-146 0 -261 68t-177 184t-62 258zM260 559h594q0 110 -80.5 199.5t-198.5 89.5q-124 0 -210 -87t-105 -202zM309 1180v176h176v-176h-176zM655 1180v176h176v-176h-176z" />
<glyph unicode="&#xec;" horiz-adv-x="524" d="M47 1274l82 153l348 -208l-45 -101zM168 0v979h188v-979h-188z" />
<glyph unicode="&#xed;" horiz-adv-x="524" d="M47 1219l348 208l82 -153l-385 -156zM168 0v979h188v-979h-188z" />
<glyph unicode="&#xee;" horiz-adv-x="524" d="M-16 1221l278 204l279 -204l-45 -97l-234 117l-233 -117zM168 0v979h188v-979h-188z" />
<glyph unicode="&#xef;" horiz-adv-x="524" d="M2 1180v176h176v-176h-176zM168 0v979h188v-979h-188zM348 1180v176h176v-176h-176z" />
<glyph unicode="&#xf0;" horiz-adv-x="1144" d="M82 459q0 99 37.5 188t100.5 152t147.5 100t175.5 37q56 0 106.5 -11.5t83.5 -28t58 -32.5t36 -28l11 -11q-17 84 -58 168.5t-108 151.5l-129 -115l-103 115l105 94q-121 64 -273 64l-6 167q228 0 410 -116l131 116l100 -114l-110 -101q114 -117 179.5 -297.5 t65.5 -420.5q0 -263 -137 -410t-352 -147q-128 0 -236 61.5t-171.5 172t-63.5 245.5zM250 459q0 -132 90 -225t213 -93q140 0 230.5 99t90.5 274q0 31 -3.5 65.5t-6.5 52.5l-4 19q-4 5 -12.5 13.5t-37 30t-61 38t-83.5 30t-105 13.5q-125 0 -218 -95t-93 -222z" />
<glyph unicode="&#xf1;" horiz-adv-x="1165" d="M154 0v979h172l8 -107q5 5 15 13.5t43 30t69 38t92.5 30t114.5 13.5q175 0 274.5 -111.5t99.5 -275.5v-610h-182v586q0 122 -61 188t-162 66q-52 0 -101.5 -14.5t-83.5 -35t-61 -41t-40 -35.5l-13 -14v-700h-184zM365 1204q0 61 41.5 112.5t109.5 51.5q54 0 112 -32.5 t93 -32.5q25 0 48.5 16.5t34.5 32.5l11 16l82 -39q0 -61 -42 -112.5t-110 -51.5q-54 0 -111.5 33t-92.5 33q-25 0 -49 -16.5t-35 -32.5l-11 -17z" />
<glyph unicode="&#xf2;" horiz-adv-x="1185" d="M82 489q0 214 148.5 361t361.5 147q140 0 257.5 -67t186 -184t68.5 -257q0 -104 -40 -198.5t-108.5 -162.5t-163.5 -108t-200 -40q-140 0 -257.5 67.5t-185 184.5t-67.5 257zM250 489q0 -143 99 -248.5t243 -105.5q145 0 244.5 105t99.5 249t-99.5 248.5t-244.5 104.5 q-141 0 -241.5 -104.5t-100.5 -248.5zM373 1274l82 153l348 -208l-45 -101z" />
<glyph unicode="&#xf3;" horiz-adv-x="1185" d="M82 489q0 214 148.5 361t361.5 147q140 0 257.5 -67t186 -184t68.5 -257q0 -104 -40 -198.5t-108.5 -162.5t-163.5 -108t-200 -40q-140 0 -257.5 67.5t-185 184.5t-67.5 257zM250 489q0 -143 99 -248.5t243 -105.5q145 0 244.5 105t99.5 249t-99.5 248.5t-244.5 104.5 q-141 0 -241.5 -104.5t-100.5 -248.5zM369 1219l348 208l82 -153l-385 -156z" />
<glyph unicode="&#xf4;" horiz-adv-x="1185" d="M82 489q0 214 148.5 361t361.5 147q140 0 257.5 -67t186 -184t68.5 -257q0 -104 -40 -198.5t-108.5 -162.5t-163.5 -108t-200 -40q-140 0 -257.5 67.5t-185 184.5t-67.5 257zM250 489q0 -143 99 -248.5t243 -105.5q145 0 244.5 105t99.5 249t-99.5 248.5t-244.5 104.5 q-141 0 -241.5 -104.5t-100.5 -248.5zM317 1221l279 204l278 -204l-45 -97l-233 117l-234 -117z" />
<glyph unicode="&#xf5;" horiz-adv-x="1185" d="M82 489q0 214 148.5 361t361.5 147q140 0 257.5 -67t186 -184t68.5 -257q0 -104 -40 -198.5t-108.5 -162.5t-163.5 -108t-200 -40q-140 0 -257.5 67.5t-185 184.5t-67.5 257zM250 489q0 -143 99 -248.5t243 -105.5q145 0 244.5 105t99.5 249t-99.5 248.5t-244.5 104.5 q-141 0 -241.5 -104.5t-100.5 -248.5zM319 1204q0 61 42 112.5t110 51.5q54 0 112 -32.5t93 -32.5q25 0 48.5 16.5t34.5 32.5l11 16l82 -39q0 -61 -42 -112.5t-110 -51.5q-54 0 -111.5 33t-92.5 33q-25 0 -49 -16.5t-35 -32.5l-11 -17z" />
<glyph unicode="&#xf6;" horiz-adv-x="1185" d="M82 489q0 214 148.5 361t361.5 147q140 0 257.5 -67t186 -184t68.5 -257q0 -104 -40 -198.5t-108.5 -162.5t-163.5 -108t-200 -40q-140 0 -257.5 67.5t-185 184.5t-67.5 257zM250 489q0 -143 99 -248.5t243 -105.5q145 0 244.5 105t99.5 249t-99.5 248.5t-244.5 104.5 q-141 0 -241.5 -104.5t-100.5 -248.5zM330 1180v176h176v-176h-176zM676 1180v176h176v-176h-176z" />
<glyph unicode="&#xf7;" horiz-adv-x="1081" d="M123 586v162h881v-162h-881zM461 252v201h201v-201h-201zM461 881v202h201v-202h-201z" />
<glyph unicode="&#xf8;" horiz-adv-x="1185" d="M82 487q0 139 68 256.5t186 185.5t258 68q156 0 283 -84l96 117l76 -61l-97 -117q72 -70 112 -164.5t40 -200.5q0 -214 -148.5 -360.5t-361.5 -146.5q-157 0 -285 83l-94 -116l-76 61l94 117q-71 68 -111 162t-40 200zM250 487q0 -137 90 -233l432 530q-90 58 -178 58 q-145 0 -244.5 -105.5t-99.5 -249.5zM414 190q85 -55 180 -55q142 0 242 104.5t100 247.5q0 134 -90 234z" />
<glyph unicode="&#xf9;" horiz-adv-x="1175" d="M133 381v598h182v-586q0 -254 224 -254q53 0 103.5 15t84.5 37t60 44t39 37l12 15v692h184v-979h-172l-6 117q-5 -5 -15 -14.5t-43.5 -32.5t-70 -41t-93 -32.5t-114.5 -14.5q-184 0 -279.5 108.5t-95.5 290.5zM369 1274l82 153l348 -208l-45 -101z" />
<glyph unicode="&#xfa;" horiz-adv-x="1175" d="M133 381v598h182v-586q0 -254 224 -254q53 0 103.5 15t84.5 37t60 44t39 37l12 15v692h184v-979h-172l-6 117q-5 -5 -15 -14.5t-43.5 -32.5t-70 -41t-93 -32.5t-114.5 -14.5q-184 0 -279.5 108.5t-95.5 290.5zM360 1219l349 208l82 -153l-385 -156z" />
<glyph unicode="&#xfb;" horiz-adv-x="1175" d="M133 381v598h182v-586q0 -254 224 -254q53 0 103.5 15t84.5 37t60 44t39 37l12 15v692h184v-979h-172l-6 117q-5 -5 -15 -14.5t-43.5 -32.5t-70 -41t-93 -32.5t-114.5 -14.5q-184 0 -279.5 108.5t-95.5 290.5zM299 1221l279 204l278 -204l-45 -97l-233 117l-234 -117z " />
<glyph unicode="&#xfc;" horiz-adv-x="1175" d="M133 381v598h182v-586q0 -254 224 -254q53 0 103.5 15t84.5 37t60 44t39 37l12 15v692h184v-979h-172l-6 117q-5 -5 -15 -14.5t-43.5 -32.5t-70 -41t-93 -32.5t-114.5 -14.5q-184 0 -279.5 108.5t-95.5 290.5zM315 1180v176h177v-176h-177zM662 1180v176h176v-176h-176z " />
<glyph unicode="&#xfd;" horiz-adv-x="1038" d="M20 979h187l319 -717l316 717h176l-615 -1389h-176l209 478zM313 1219l349 208l81 -153l-385 -156z" />
<glyph unicode="&#xfe;" horiz-adv-x="1187" d="M154 -410v1885h182v-619q4 6 12 15.5t36.5 34t61 43.5t87 34.5t114.5 15.5q129 0 234.5 -67.5t165 -184.5t59.5 -258q0 -215 -132 -362t-327 -147q-60 0 -114 14t-88 34t-60 40.5t-37 34.5l-12 14v-527h-182zM336 297q4 -7 11.5 -17.5t34 -38t56.5 -48.5t78 -38.5 t100 -17.5q142 0 230 102.5t88 249.5q0 146 -87.5 249.5t-228.5 103.5q-55 0 -104 -16.5t-80 -40t-54.5 -47t-33.5 -40.5l-10 -16v-385z" />
<glyph unicode="&#xff;" horiz-adv-x="1038" d="M20 979h187l319 -717l316 717h176l-615 -1389h-176l209 478zM268 1180v176h176v-176h-176zM614 1180v176h177v-176h-177z" />
<glyph unicode="&#x152;" horiz-adv-x="2070" d="M82 700q0 198 93.5 363.5t255 260.5t355.5 95q82 0 162.5 -19t119.5 -38l40 -19v54h883v-164h-705v-442h594v-166h-594v-461h723v-164h-901v57q-17 -8 -46.5 -20.5t-116 -33.5t-165.5 -21q-194 0 -354.5 95t-252 259.5t-91.5 363.5zM264 702q0 -154 69 -281t191.5 -200.5 t272.5 -73.5q55 0 107 10t87.5 24.5t63 29.5t40.5 25l13 10v911q-5 4 -14.5 10.5t-41.5 23t-66 29t-85 23t-102 10.5q-150 0 -273 -72.5t-192.5 -199t-69.5 -279.5z" />
<glyph unicode="&#x153;" horiz-adv-x="1935" d="M82 489q0 214 148.5 361t361.5 147q131 0 243 -61t183 -164q67 105 177 166t241 61q87 0 161.5 -29t124 -76.5t85 -109t51.5 -125.5t16 -127q0 -36 -3 -65.5t-6 -40.5l-3 -12h-746q6 -112 101.5 -194.5t228.5 -82.5q80 0 161.5 23t122.5 46l42 23v-172q-5 -3 -14.5 -8 t-42 -18t-68.5 -23t-93 -18t-116 -8q-144 0 -250 59t-170 164q-70 -104 -182 -164.5t-244 -60.5q-140 0 -257.5 67.5t-185 184.5t-67.5 257zM250 489q0 -143 99 -248.5t243 -105.5q143 0 243.5 105.5t100.5 248.5t-101 248t-243 105q-141 0 -241.5 -104.5t-100.5 -248.5z M1116 559h594q0 110 -80 199.5t-198 89.5q-124 0 -210.5 -87t-105.5 -202z" />
<glyph unicode="&#x178;" horiz-adv-x="1181" d="M20 1397h191l381 -684l379 684h190l-481 -836v-561h-178v561zM330 1577v176h176v-176h-176zM676 1577v176h176v-176h-176z" />
<glyph unicode="&#x2c6;" horiz-adv-x="557" d="M0 1221l279 204l278 -204l-45 -97l-233 117l-234 -117z" />
<glyph unicode="&#x2dc;" horiz-adv-x="534" d="M2 1204q0 61 42 112.5t110 51.5q54 0 111.5 -32.5t92.5 -32.5q25 0 49 16.5t35 32.5l11 16l82 -39q0 -61 -42 -112.5t-110 -51.5q-54 0 -112 33t-93 33q-25 0 -48.5 -16.5t-34.5 -32.5l-11 -17z" />
<glyph unicode="&#x2000;" horiz-adv-x="949" />
<glyph unicode="&#x2001;" horiz-adv-x="1898" />
<glyph unicode="&#x2002;" horiz-adv-x="949" />
<glyph unicode="&#x2003;" horiz-adv-x="1898" />
<glyph unicode="&#x2004;" horiz-adv-x="632" />
<glyph unicode="&#x2005;" horiz-adv-x="474" />
<glyph unicode="&#x2006;" horiz-adv-x="316" />
<glyph unicode="&#x2007;" horiz-adv-x="316" />
<glyph unicode="&#x2008;" horiz-adv-x="237" />
<glyph unicode="&#x2009;" horiz-adv-x="379" />
<glyph unicode="&#x200a;" horiz-adv-x="105" />
<glyph unicode="&#x2010;" horiz-adv-x="741" d="M123 473v160h495v-160h-495z" />
<glyph unicode="&#x2011;" horiz-adv-x="741" d="M123 473v160h495v-160h-495z" />
<glyph unicode="&#x2012;" horiz-adv-x="741" d="M123 473v160h495v-160h-495z" />
<glyph unicode="&#x2013;" horiz-adv-x="970" d="M0 475v158h971v-158h-971z" />
<glyph unicode="&#x2014;" horiz-adv-x="1941" d="M0 475v158h1942v-158h-1942z" />
<glyph unicode="&#x2018;" horiz-adv-x="372" d="M41 1055v225l158 229l82 -45l-99 -184v-18h68v-207h-209z" />
<glyph unicode="&#x2019;" horiz-adv-x="372" d="M92 1065l98 184v19h-67v207h209v-226l-158 -229z" />
<glyph unicode="&#x201a;" horiz-adv-x="464" d="M92 -203l98 185v18h-67v207h209v-225l-158 -230z" />
<glyph unicode="&#x201c;" horiz-adv-x="724" d="M41 1055v225l158 229l82 -45l-99 -184v-18h68v-207h-209zM393 1055v225l158 229l82 -45l-98 -184v-18h67v-207h-209z" />
<glyph unicode="&#x201d;" horiz-adv-x="724" d="M92 1065l98 184v19h-67v207h209v-226l-158 -229zM444 1065l99 184v19h-68v207h209v-226l-158 -229z" />
<glyph unicode="&#x201e;" horiz-adv-x="817" d="M92 -203l98 185v18h-67v207h209v-225l-158 -230zM444 -203l99 185v18h-68v207h209v-225l-158 -230z" />
<glyph unicode="&#x2022;" horiz-adv-x="860" d="M123 696q0 126 89.5 215.5t217.5 89.5q126 0 216.5 -90t90.5 -215q0 -128 -89.5 -217.5t-217.5 -89.5q-129 0 -218 89t-89 218z" />
<glyph unicode="&#x2026;" horiz-adv-x="1486" d="M143 0v207h209v-207h-209zM639 0v207h209v-207h-209zM1135 0v207h208v-207h-208z" />
<glyph unicode="&#x202f;" horiz-adv-x="379" />
<glyph unicode="&#x2039;" horiz-adv-x="630" d="M82 481l287 439h180l-287 -439l287 -438h-180z" />
<glyph unicode="&#x203a;" horiz-adv-x="630" d="M82 43l287 438l-287 439h180l287 -439l-287 -438h-180z" />
<glyph unicode="&#x205f;" horiz-adv-x="474" />
<glyph unicode="&#x20ac;" d="M-2 485l49 160h84q-2 18 -2 55q0 49 2 74h-133l49 160h115q66 217 237.5 350t399.5 133q71 0 132 -8.5t86 -17.5l25 -9v-176q-11 5 -32 12.5t-84.5 20t-126.5 12.5q-151 0 -270 -86t-177 -231h461v-160h-500q-2 -25 -2 -72q0 -39 2 -57h402v-160h-367 q55 -153 174.5 -246.5t270.5 -93.5q32 0 64.5 3.5t59 8.5t50.5 11.5t42.5 13t31.5 11.5t21 9l7 3v-178q-12 -5 -34.5 -13t-94.5 -21t-147 -13q-235 0 -406 139.5t-231 365.5h-158z" />
<glyph unicode="&#x2122;" horiz-adv-x="1658" d="M123 1264v131h539v-131h-203v-611h-135v611h-201zM772 653v742h133l219 -285l217 285h134v-742h-134v539l-217 -285l-221 285v-539h-131z" />
<glyph unicode="&#x25fc;" horiz-adv-x="983" d="M0 0v983h983v-983h-983z" />
<glyph unicode="&#xfb03;" horiz-adv-x="1712" d="M61 821v158h142v168q0 43 10.5 87t37 92t67 84.5t106.5 60.5t149 24v-160q-54 0 -93 -16t-58.5 -43.5t-28 -57.5t-8.5 -65v-174h412v168q0 43 10.5 87t37 92t67 84.5t106.5 60.5t149 24v-160q-54 0 -93 -16t-58.5 -43.5t-28 -57.5t-8.5 -65v-174h565v-979h-188v821h-377 v-821h-182v821h-412v-821h-182v821h-142zM1352 1169v197h196v-197h-196z" />
<glyph unicode="&#xfb04;" horiz-adv-x="1687" d="M61 821v158h142v168q0 43 10.5 87t37 92t67 84.5t106.5 60.5t149 24v-160q-54 0 -93 -16t-58.5 -43.5t-28 -57.5t-8.5 -65v-174h412v147q0 43 10.5 87t37 92t67 85t106.5 61t149 24h357v-1475h-183v1315h-174q-54 0 -93 -16t-58.5 -43.5t-28 -57.5t-8.5 -65v-154h188 v-158h-188v-821h-182v821h-412v-821h-182v821h-142z" />
</font>
</defs>
</svg>
